# AST/ASF file generated using VICON BodyLanguage
# -----------------------------------------------
:version 1.10
:name VICON
:units
  mass 1.0
  length 0.45
  angle deg
:documentation
   .ast/.asf automatically generated from VICON data using
   VICON BodyBuilder and BodyLanguage model FoxedUp or BRILLIANT.MOD
:root
   order TX TY TZ RX RY RZ
   axis XYZ
   position 0 0 0  
   orientation 0 0 0 
:bonedata
  begin
     id 1 
     name lhipjoint
     direction 0.682418 -0.694059 0.22932 
     length 2.25561 
     axis 0 0 0  XYZ
  end
  begin
     id 2 
     name lfemur
     direction 0.34202 -0.939693 0  
     length 6.96448  
     axis 0 0 20  XYZ
    dof rx ry rz
    limits (-160.0 20.0)
           (-70.0 70.0)
           (-60.0 70.0)
  end
  begin
     id 3 
     name ltibia
     direction 0.34202 -0.939693 0   
     length 6.88553   
     axis 0 0 20   XYZ
    dof rx
    limits (-10.0 170.0)
  end
  begin
     id 4 
     name lfoot
     direction 0.0723587 -0.198804 0.977364   
     length 1.88518   
     axis -90 7.62852e-016 20   XYZ
    dof rx rz
    limits (-45.0 90.0)
           (-70.0 20.0)
  end
  begin
     id 5 
     name ltoes
     direction 1.53558e-011 -4.21962e-011 1   
     length 0.952124   
     axis -90 7.62852e-016 20   XYZ
    dof rx
    limits (-90.0 20.0)
  end
  begin
     id 6 
     name rhipjoint
     direction -0.657603 -0.71533 0.236348   
     length 2.18854  
     axis 0 0 0  XYZ 
  end
  begin
     id 7 
     name rfemur
     direction -0.34202 -0.939693 0   
     length 6.86686   
     axis 0 0 -20   XYZ
    dof rx ry rz
    limits (-160.0 20.0)
           (-70.0 70.0)
           (-70.0 60.0)
  end
  begin
     id 8 
     name rtibia
     direction -0.34202 -0.939693 0   
     length 6.59503   
     axis 0 0 -20   XYZ
    dof rx
    limits (-10.0 170.0)
 end
 begin
     id 9 
     name rfoot
     direction -0.101977 -0.280179 0.954516   
     length 1.93723  
     axis -90 -7.62852e-016 -20   XYZ
    dof rx rz
    limits (-45.0 90.0)
           (-20.0 70.0)
  end
  begin
     id 10 
     name rtoes
     direction -1.53564e-011 -4.21897e-011 1   
     length 0.970315   
     axis -90 -7.62852e-016 -20   XYZ
    dof rx
    limits (-90.0 20.0)
  end
  begin
     id 11 
     name lowerback
     direction -0.0339559 0.999421 -0.00235966   
     length 1.88543   
     axis 0 0 0   XYZ
    dof rx ry rz
    limits (-20.0 45.0)
           (-30.0 30.0)
           (-30.0 30.0)
  end
  begin
     id 12 
     name upperback
     direction 0.00401003 0.999739 0.0224689   
     length 1.8856   
     axis 0 0 0   XYZ
    dof rx ry rz
    limits (-20.0 45.0)
           (-30.0 30.0)
           (-30.0 30.0)
  end
  begin
     id 13 
     name thorax
     direction 0.0198619 0.999546 0.0226536   
     length 1.88352   
     axis 0 0 0   XYZ
    dof rx ry rz
    limits (-20.0 45.0)
           (-30.0 30.0)
           (-30.0 30.0)
  end
  begin
     id 14 
     name lowerneck
     direction -0.0461848 0.998632 0.0245198   
     length 1.34895   
     axis 0 0 0   XYZ
    dof rx ry rz
    limits (-20.0 45.0)
           (-30.0 30.0)
           (-30.0 30.0)
  end
  begin
     id 15 
     name upperneck
     direction -0.0180627 0.994724 -0.100984   
     length 1.35214   
     axis 0 0 0   XYZ
    dof rx ry rz
    limits (-20.0 45.0)
           (-30.0 30.0)
           (-30.0 30.0)
  end
  begin
     id 16
     name head
     direction -0.00374772 0.999293 -0.037403  
     length 1.3568  
     axis 0 0 0   XYZ
    dof rx ry rz
    limits (-20.0 45.0)
           (-30.0 30.0)
           (-30.0 30.0)
  end
  begin
     id 17 
     name lclavicle
     direction 0.971773 0.191119 0.138311  
     length 2.84954  
     axis 0 0 0   XYZ
    dof ry rz
    limits (-20.0 10.0)
           (0.0 20.0)
  end
  begin
     id 18 
     name lhumerus
     direction 1 -4.4897e-011 -2.43761e-027   
     length 4.40919   
     axis 180 -30 -90   XYZ
    dof rx ry rz
    limits (-60.0 90.0)
           (-90.0 90.0)
           (-90.0 90.0)
  end
  begin
     id 19
     name lradius
     direction 1 -4.4896e-011 -9.1621e-027   
     length 3.03857   
     axis 180 -30 -90   XYZ
    dof rx
    limits (-10.0 170.0)
  end
  begin
     id 20
     name lwrist
     direction 1 -4.4896e-011 -1.41363e-026   
     length 1.51928   
     axis 1.07133e-014 90 90   XYZ
    dof ry
    limits (-180.0 0.0)
 end
  begin
     id 21 
     name lhand
     direction 1 -4.48978e-011 -2.82725e-026   
     length 0.523208   
     axis 1.80403e-014 90 90   XYZ
    dof rx rz
    limits (-90.0 90.0)
           (-45.0 45.0)
  end
  begin
     id 22 
     name lfingers
     direction 1 -4.48977e-011 -5.6545e-026   
     length 0.421824   
     axis 3.60806e-014 90 90   XYZ
    dof rx
    limits (0.0 90.0)
  end
  begin
     id 23
     name lthumb
     direction 0.707107 -6.34962e-011 0.707107   
     length 0.605657   
     axis -90 45 2.85299e-015   XYZ
    dof rx rz
    limits (-45.0 45.0)
           (-45.0 45.0)
  end
  begin
     id 24 
     name rclavicle
     direction -0.957247 0.24311 0.156766   
     length 3.12406  
     axis 0 0 0   XYZ 
    dof ry rz
    limits (-10.0 20.0)
           (-20.0 0.0)
  end
  begin
     id 25 
     name rhumerus
     direction -1 -4.48964e-011 -1.70632e-027  
     length 4.61969   
     axis 180 30 90   XYZ
    dof rx ry rz
    limits (-90.0 60.0)
           (-90.0 90.0)
           (-90.0 90.0)
  end
  begin
     id 26 
     name rradius
     direction -1 -4.48966e-011 -6.60395e-027   
     length 3.09382   
     axis 180 30 90   XYZ
    dof rx
    limits (-10.0 170.0)
  end
  begin
     id 27 
     name rwrist
     direction -1 -4.48963e-011 -1.41363e-026   
     length 1.54691   
     axis 1.07133e-014 -90 -90   XYZ
    dof ry
    limits (-180.0 0.0)
  end
  begin
     id 28
     name rhand
     direction -1 -4.49013e-011 -2.82725e-026   
     length 0.500896   
     axis 1.80403e-014 -90 -90   XYZ
    dof rx rz
    limits (-90.0 90.0)
           (-45.0 45.0)
  end
  begin
     id 29
     name rfingers
     direction -1 -4.48902e-011 -5.6545e-026   
     length 0.403835   
     axis 3.60806e-014 -90 -90   XYZ
    dof rx
    limits (0.0 90.0)
  end
  begin
     id 30
     name rthumb
     direction -0.707107 -6.34953e-011 0.707107   
     length 0.579829   
     axis -90 -45 -2.85299e-015   XYZ
    dof rx rz
    limits (-45.0 45.0)
           (-45.0 45.0)
  end
:hierarchy
  begin
    root lhipjoint rhipjoint lowerback
    lhipjoint lfemur
    lfemur ltibia
    ltibia lfoot
    lfoot ltoes
    rhipjoint rfemur
    rfemur rtibia
    rtibia rfoot
    rfoot rtoes
    lowerback upperback
    upperback thorax
    thorax lowerneck lclavicle rclavicle
    lowerneck upperneck
    upperneck head
    lclavicle lhumerus
    lhumerus lradius
    lradius lwrist
    lwrist lhand lthumb
    lhand lfingers
    rclavicle rhumerus
    rhumerus rradius
    rradius rwrist
    rwrist rhand rthumb
    rhand rfingers
  end

#!OML:ASF E:\madness\Project 1\Capture day 1\Session 1\Female1.ASF
:FULLY-SPECIFIED
:DEGREES
528
root 20.1626 15.7503 -3.75284 256.766 -88.3898 -245.884
lowerback 23.4922 5.60105 -4.45642
upperback 9.18331 5.25092 -3.3421
thorax -3.0154 2.2248 -2.40259
lowerneck -3.37568 10.4232 3.63722
upperneck 10.6235 15.0918 -13.4821
head 5.06799 6.85014 -3.80362
rclavicle -1.61016e-014 1.59028e-015
rhumerus -40.0262 1.47972 -71.0974
rradius 74.7821
rwrist -0.0584813
rhand -15.4172 -39.4177
rfingers 7.12502
rthumb 10.7623 -69.122
lclavicle -1.61016e-014 1.59028e-015
lhumerus -48.634 -2.79205 76.3446
lradius 80.4312
lwrist -3.4056
lhand -44.728 -6.64886
lfingers 7.12502
lthumb -17.5219 22.5815
rfemur -28.9962 4.51096 25.4087
rtibia 35.628
rfoot -16.4948 -4.25854
rtoes 19.0405
lfemur -62.0814 -20.0509 7.42972
ltibia 82.8717
lfoot 7.67937 -15.5534
ltoes 4.11739
529
root 20.1416 15.766 -3.75027 256.7 -88.3868 -246.102
lowerback 23.123 5.60955 -4.38369
upperback 8.9938 5.32986 -3.32174
thorax -3.03697 2.27757 -2.42109
lowerneck -2.78887 10.313 4.2484
upperneck 10.4681 14.9487 -14.0878
head 4.99941 6.80277 -4.12667
rclavicle 6.02318e-014 -4.59193e-014
rhumerus -40.1812 1.35224 -71.1253
rradius 74.6375
rwrist -0.156613
rhand -15.3082 -39.3589
rfingers 7.12502
rthumb 10.8675 -69.0577
lclavicle 6.02318e-014 -4.59193e-014
lhumerus -48.8139 -3.22723 76.9065
lradius 80.3048
lwrist -3.02123
lhand -44.7376 -6.3038
lfingers 7.12502
lthumb -17.5311 22.9257
rfemur -28.3878 4.88475 25.3549
rtibia 35.2734
rfoot -16.4432 -4.70125
rtoes 18.8402
lfemur -61.937 -20.2162 6.8778
ltibia 83.6551
lfoot 8.11376 -15.2487
ltoes 6.66267
530
root 20.1167 15.7844 -3.75142 259.106 -88.3568 -248.779
lowerback 22.6842 5.60081 -4.35811
upperback 8.82673 5.38129 -3.31253
thorax -3.00149 2.31568 -2.41098
lowerneck -2.75274 10.0159 3.8489
upperneck 10.3608 14.4538 -13.1744
head 4.81353 6.59867 -3.83489
rclavicle -8.54774e-015 1.70955e-014
rhumerus -40.3105 1.05815 -71.2242
rradius 74.5428
rwrist -0.0666295
rhand -15.3367 -39.436
rfingers 7.12502
rthumb 10.84 -69.1362
lclavicle -8.54774e-015 1.70955e-014
lhumerus -48.9803 -3.59731 77.4333
lradius 80.0773
lwrist -2.77016
lhand -44.6302 -5.72602
lfingers 7.12502
lthumb -17.4278 23.5127
rfemur -27.7905 5.22099 25.2619
rtibia 34.9521
rfoot -16.4659 -5.10603
rtoes 18.7706
lfemur -61.8634 -20.4277 6.33836
ltibia 84.4301
lfoot 8.23818 -15.0978
ltoes 7.97135
531
root 20.0939 15.7876 -3.74843 263.839 -88.3321 -253.653
lowerback 22.0645 5.51197 -4.41192
upperback 8.64548 5.33526 -3.26572
thorax -2.9019 2.30639 -2.27776
lowerneck -2.75707 10.063 3.86945
upperneck 10.9549 14.5748 -13.2041
head 5.01077 6.62223 -3.82887
rclavicle -8.62725e-014 6.12257e-014
rhumerus -40.4545 1.02891 -71.2959
rradius 74.5563
rwrist 0.0696813
rhand -15.5578 -39.329
rfingers 7.12502
rthumb 10.6267 -69.0403
lclavicle -8.62725e-014 6.12257e-014
lhumerus -49.4076 -3.6503 77.9188
lradius 80.0034
lwrist -2.59008
lhand -44.1498 -7.21729
lfingers 7.12502
lthumb -16.9654 22.0618
rfemur -27.3714 5.52652 25.1449
rtibia 34.6273
rfoot -16.4802 -5.49075
rtoes 18.7052
lfemur -61.8475 -20.5201 5.76245
ltibia 85.1743
lfoot 8.14208 -14.5604
ltoes 9.29663
532
root 20.0711 15.7908 -3.7421 268.238 -88.3072 -258.288
lowerback 21.5606 5.41184 -4.40448
upperback 8.47197 5.27227 -3.24114
thorax -2.8417 2.28847 -2.20791
lowerneck -2.60458 10.1157 3.59738
upperneck 11.307 14.6185 -12.5944
head 5.03038 6.65021 -3.60326
rclavicle 4.63168e-014 -2.84262e-014
rhumerus -40.6626 0.995543 -71.4116
rradius 74.6838
rwrist 0.0560648
rhand -15.3841 -39.4802
rfingers 7.12502
rthumb 10.7942 -69.1828
lclavicle 4.63168e-014 -2.84262e-014
lhumerus -49.7433 -3.55492 78.3079
lradius 79.7238
lwrist -2.57505
lhand -43.3548 -10.0777
lfingers 7.12502
lthumb -16.2 19.2654
rfemur -26.8308 5.79546 25.0558
rtibia 34.2897
rfoot -16.4729 -5.86579
rtoes 18.6955
lfemur -61.6656 -20.6235 5.11257
ltibia 85.861
lfoot 7.97359 -13.7744
ltoes 11.0934
533
root 20.0427 15.8073 -3.73672 268.045 -88.3144 -258.4
lowerback 21.0326 5.36281 -4.35234
upperback 8.40711 5.28062 -3.19771
thorax -2.6475 2.30105 -2.15283
lowerneck -2.41517 10.1395 4.05879
upperneck 11.3585 14.6841 -13.0732
head 5.08942 6.67888 -3.82216
rclavicle 2.22639e-014 -1.27222e-014
rhumerus -40.6441 0.947614 -71.4908
rradius 74.7423
rwrist -0.158702
rhand -14.9626 -39.9886
rfingers 7.12502
rthumb 11.2008 -69.6696
lclavicle 2.22639e-014 -1.27222e-014
lhumerus -49.749 -3.44044 78.6858
lradius 79.0674
lwrist -2.65521
lhand -42.8624 -11.3978
lfingers 7.12502
lthumb -15.7258 17.9833
rfemur -26.1592 6.07848 25.0412
rtibia 33.953
rfoot -16.5453 -6.14686
rtoes 19.0157
lfemur -61.3293 -20.7001 4.46265
ltibia 86.4781
lfoot 7.55251 -13.5222
ltoes 11.1735
534
root 20.012 15.8237 -3.73184 264.53 -88.3643 -255.12
lowerback 20.3629 5.36321 -4.34701
upperback 8.38809 5.35972 -3.07194
thorax -2.34305 2.34541 -1.98671
lowerneck -2.90442 10.1916 3.8894
upperneck 11.8214 14.8051 -12.9601
head 5.30595 6.69203 -3.71899
rclavicle 1.59028e-015 1.31198e-014
rhumerus -40.5416 0.970539 -71.4784
rradius 74.63
rwrist -0.147602
rhand -15.0149 -39.6746
rfingers 7.12502
rthumb 11.1504 -69.3584
lclavicle 1.59028e-015 1.31198e-014
lhumerus -49.8281 -3.34953 79.1604
lradius 78.561
lwrist -2.57815
lhand -42.8371 -10.4932
lfingers 7.12502
lthumb -15.7015 18.8897
rfemur -25.5297 6.34422 25.0979
rtibia 33.5556
rfoot -16.578 -6.30256
rtoes 19.3011
lfemur -60.9096 -20.6784 3.88242
ltibia 87.0272
lfoot 6.81019 -13.3851
ltoes 8.59714
535
root 19.9851 15.8357 -3.72649 260.407 -88.3689 -251.192
lowerback 19.6791 5.35657 -4.41728
upperback 8.28737 5.41748 -2.97127
thorax -2.12218 2.38106 -1.80321
lowerneck -3.38843 10.1996 3.55611
upperneck 12.486 14.8491 -12.4786
head 5.53679 6.67024 -3.48321
rclavicle 3.91606e-014 -3.8763e-014
rhumerus -40.572 0.981468 -71.6177
rradius 74.4032
rwrist 0.19147
rhand -15.5084 -38.9121
rfingers 7.12502
rthumb 10.6744 -68.621
lclavicle 3.91606e-014 -3.8763e-014
lhumerus -50.2012 -3.17173 79.5176
lradius 78.2146
lwrist -2.3933
lhand -42.7342 -9.41759
lfingers 7.12502
lthumb -15.6024 19.9731
rfemur -24.9432 6.62031 25.1147
rtibia 33.0621
rfoot -16.4643 -6.49063
rtoes 19.2497
lfemur -60.4657 -20.6188 3.29152
ltibia 87.4949
lfoot 5.99448 -12.9994
ltoes 5.78293
536
root 19.9606 15.8491 -3.72185 258.12 -88.3571 -249.046
lowerback 18.9439 5.26653 -4.55737
upperback 8.14489 5.36093 -2.88224
thorax -1.92245 2.36063 -1.56714
lowerneck -3.38745 10.2241 3.44059
upperneck 12.7449 14.8788 -12.2207
head 5.59082 6.6789 -3.3815
rclavicle 1.80894e-014 -5.56597e-015
rhumerus -40.5244 1.20953 -71.8268
rradius 74.0766
rwrist 0.394961
rhand -15.8854 -38.6185
rfingers 7.12502
rthumb 10.3107 -68.3457
lclavicle 1.80894e-014 -5.56597e-015
lhumerus -50.6398 -2.79766 79.719
lradius 77.7184
lwrist -2.33017
lhand -42.6636 -8.71056
lfingers 7.12502
lthumb -15.5344 20.6855
rfemur -24.4076 6.9535 25.0822
rtibia 32.5281
rfoot -16.3677 -6.78809
rtoes 19.4477
lfemur -60.0892 -20.5804 2.73555
ltibia 87.8597
lfoot 5.32023 -12.5645
ltoes 5.17049
537
root 19.934 15.8673 -3.71772 255.29 -88.4023 -246.401
lowerback 18.4579 5.20328 -4.61437
upperback 7.89838 5.33495 -2.76328
thorax -1.95507 2.36043 -1.37779
lowerneck -3.06277 10.2101 3.44726
upperneck 12.7291 14.8466 -12.2044
head 5.52645 6.67521 -3.39889
rclavicle -8.01102e-014 3.73715e-014
rhumerus -40.6976 1.35921 -71.8976
rradius 73.8597
rwrist 0.499045
rhand -15.718 -38.9316
rfingers 7.12502
rthumb 10.4722 -68.6508
lclavicle -8.01102e-014 3.73715e-014
lhumerus -51.2161 -2.62262 79.9689
lradius 77.2109
lwrist -2.20003
lhand -42.7147 -7.83343
lfingers 7.12502
lthumb -15.5836 21.5588
rfemur -23.7888 7.29516 25.1195
rtibia 31.9772
rfoot -16.3249 -7.07347
rtoes 19.72
lfemur -59.6499 -20.5918 2.22388
ltibia 88.1074
lfoot 4.79026 -11.9025
ltoes 5.53709
538
root 19.9085 15.8848 -3.71114 251.902 -88.4163 -243.227
lowerback 18.1779 5.18436 -4.59363
upperback 7.54472 5.35918 -2.70033
thorax -2.19472 2.39126 -1.3226
lowerneck -2.42147 10.1295 3.65918
upperneck 12.6246 14.7161 -12.3433
head 5.3986 6.64007 -3.52155
rclavicle -4.94974e-014 -2.5842e-015
rhumerus -41.1576 1.25399 -71.9911
rradius 73.7722
rwrist 0.77613
rhand -15.3858 -39.0736
rfingers 7.12502
rthumb 10.7926 -68.7763
lclavicle -4.94974e-014 -2.5842e-015
lhumerus -51.8023 -2.65339 80.1695
lradius 76.6299
lwrist -1.91372
lhand -42.0638 -8.51945
lfingers 7.12502
lthumb -14.9566 20.9205
rfemur -23.1417 7.56865 25.146
rtibia 31.3864
rfoot -16.1652 -7.29282
rtoes 19.5935
lfemur -59.1744 -20.6362 1.69794
ltibia 88.2175
lfoot 4.3831 -11.2382
ltoes 6.2213
539
root 19.8822 15.8999 -3.70351 251.034 -88.3476 -242.596
lowerback 17.6868 5.17835 -4.59494
upperback 7.38801 5.40557 -2.69266
thorax -2.11005 2.42442 -1.29132
lowerneck -2.13083 9.97905 3.79814
upperneck 12.6282 14.4928 -12.3018
head 5.33688 6.54915 -3.56464
rclavicle 2.60408e-014 2.04748e-014
rhumerus -41.3459 1.0216 -72.1362
rradius 73.5926
rwrist 0.888386
rhand -15.2247 -38.893
rfingers 7.12502
rthumb 10.948 -68.5876
lclavicle 2.60408e-014 2.04748e-014
lhumerus -51.8256 -2.57823 80.2786
lradius 75.6827
lwrist -1.80223
lhand -41.4469 -9.18767
lfingers 7.12502
lthumb -14.3623 20.2955
rfemur -22.4672 7.77974 25.0719
rtibia 30.7784
rfoot -15.9198 -7.52386
rtoes 19.4963
lfemur -58.6085 -20.7324 1.1155
ltibia 88.1906
lfoot 4.09614 -10.6249
ltoes 7.64474
540
root 19.851 15.9179 -3.69876 250.436 -88.2929 -242.35
lowerback 17.1492 5.24847 -4.46858
upperback 7.39429 5.56771 -2.7284
thorax -1.81161 2.51022 -1.38563
lowerneck -2.2744 9.72891 3.85913
upperneck 12.9124 14.1438 -12.0206
head 5.40202 6.37803 -3.50559
rclavicle -5.08889e-014 6.32135e-014
rhumerus -41.4023 0.493225 -72.2719
rradius 73.393
rwrist 0.850966
rhand -14.7296 -39.3333
rfingers 7.12502
rthumb 11.4256 -69.002
lclavicle -5.08889e-014 6.32135e-014
lhumerus -51.6216 -2.71913 80.3702
lradius 74.5685
lwrist -1.93223
lhand -41.7109 -9.14452
lfingers 7.12502
lthumb -14.6166 20.3204
rfemur -21.6456 8.01036 25.0305
rtibia 30.2339
rfoot -15.8151 -7.76554
rtoes 19.8621
lfemur -57.8189 -20.886 0.545734
ltibia 88.0529
lfoot 4.15722 -9.83807
ltoes 10.7161
